<?xml version="1.0" encoding="UTF-8"?>
<svg xmlns="http://www.w3.org/2000/svg" xmlns:xlink="http://www.w3.org/1999/xlink" width="1440pt" height="74.999997pt" viewBox="0 0 1440 74.999997" version="1.2">
<g id="surface1">
<path style=" stroke:none;fill-rule:evenodd;fill:rgb(20.779419%,23.139954%,25.489807%);fill-opacity:1;" d="M 1415.886719 28.769531 C 1407.121094 25.691406 1395.445312 24.539062 1383.585938 23.535156 C 1384.382812 22.925781 1384.691406 21.984375 1384.601562 20.800781 C 1377.949219 20.578125 1375.164062 22.859375 1367.964844 22.292969 C 1370.199219 20.867188 1368.398438 19.707031 1364.828125 20.269531 C 1366.882812 18.511719 1373.339844 19.582031 1373.160156 21.5625 C 1374.476562 21.375 1374.210938 20.203125 1373.152344 20.203125 C 1390.097656 21.121094 1407.5625 18.300781 1422.074219 21.199219 C 1413.550781 15.3125 1385.894531 15.433594 1373.09375 12.015625 C 1373.902344 10.433594 1379.527344 11.308594 1378.3125 13.34375 C 1379.683594 12.644531 1382.183594 12.65625 1382.457031 11.261719 C 1393.742188 13.5 1406.578125 14.339844 1417.851562 13.742188 C 1430.71875 18.644531 1448.0625 20.578125 1455.425781 29.167969 C 1455.890625 34.710938 1454.40625 37.664062 1455.523438 42.132812 C 1452.207031 47.910156 1448.550781 53.476562 1442.105469 57.238281 C 1446.636719 62.847656 1449.289062 67.074219 1449.511719 72.882812 C 1448.152344 74 1441.851562 75.394531 1446.414062 76.324219 C 1444.261719 77.1875 1442.039062 78.019531 1440.191406 79.101562 C 1440.722656 80.882812 1445.949219 81.359375 1443.34375 83.164062 C 1439.738281 83.738281 1439.339844 82.179688 1436.058594 82.53125 C 1436.855469 86.539062 1444.492188 88.207031 1446.546875 93.375 C 1449.078125 99.738281 1444.347656 107.363281 1444.625 115.230469 C 1434.445312 115.296875 1438.058594 125.332031 1423.875 124.246094 C 1434.589844 128.617188 1450.21875 133.109375 1463.492188 133.507812 C 1465.882812 136.273438 1469.308594 143.601562 1463.582031 145.789062 C 1464.796875 147.03125 1466.3125 148.082031 1467.773438 149.175781 C 1465.59375 150.871094 1457.148438 149.265625 1460.507812 152.640625 C 1450.117188 154.332031 1436.675781 151.886719 1429.335938 157.640625 C 1429.457031 159.390625 1433.226562 158.714844 1434.554688 159.65625 C 1434.886719 161.390625 1432.632812 163.648438 1433.558594 165.121094 C 1439.394531 166.539062 1436.5 167.699219 1441.90625 167.789062 C 1440.625 169.679688 1438.644531 171.117188 1434.644531 171.25 C 1437.828125 173.011719 1443.664062 173 1445.078125 175.953125 C 1433.21875 179.207031 1428.042969 176.984375 1414.914062 177.546875 C 1433.738281 181 1450.570312 185.78125 1466.003906 191.5 C 1466.203125 194.476562 1466.402344 197.464844 1463.957031 196.976562 C 1465.925781 199.113281 1467.472656 197.53125 1469.152344 196.257812 C 1470.292969 202.132812 1470.878906 205.730469 1476.539062 209.171875 C 1474.480469 214.027344 1467.230469 212.113281 1460.960938 213.375 C 1461.890625 216.652344 1463.304688 219.59375 1468.289062 220.148438 C 1465.03125 226.367188 1447.332031 225.503906 1441.296875 227.847656 C 1443.683594 231.921875 1450.195312 228.546875 1455.867188 227.738281 C 1454.441406 230.515625 1458.144531 229.875 1457.976562 231.820312 C 1439.460938 232.507812 1437.804688 238.09375 1418.460938 236.203125 C 1417.953125 253.972656 1404.300781 263.277344 1396.917969 276.621094 C 1387.875 274.964844 1383.894531 277.972656 1379.253906 280.851562 C 1378.789062 282.753906 1384.910156 280.261719 1384.457031 282.167969 C 1376.335938 284.554688 1364.90625 284.179688 1353.265625 285.132812 C 1342.398438 286.027344 1333.222656 286.050781 1326.203125 283.296875 C 1272.636719 290.066406 1230.65625 284.722656 1174.304688 287.820312 C 1173.375 285.640625 1177.730469 286.867188 1177.398438 285.078125 C 1160.078125 285 1129.722656 290.109375 1112.886719 286.226562 C 1109.539062 286.867188 1111.417969 284.015625 1109.75 283.515625 C 1096.59375 283.925781 1084.757812 288.320312 1076.457031 283.761719 C 1057.742188 282.71875 1036.992188 288.320312 1023.375 284.15625 C 968.691406 285.097656 924.632812 287.566406 878.714844 282.5 C 852.558594 281.238281 831.214844 283.050781 804.820312 281.679688 C 808.523438 278.414062 817.230469 278.371094 824.5625 277.441406 C 814.945312 276.3125 799.269531 276.09375 786.0625 277.042969 C 741.890625 280.230469 695.863281 279.191406 650.785156 277.363281 C 648.707031 275.792969 651.039062 276.601562 651.8125 275.304688 C 642.945312 273.117188 633.652344 276.167969 625.800781 276.867188 C 623.847656 275.582031 625.667969 275.152344 625.78125 273.449219 C 616.882812 272.574219 619.5 275.503906 614.351562 276.257812 C 609.507812 276.898438 615.777344 274.488281 612.261719 274.222656 C 610.039062 273.921875 610.28125 275.21875 610.195312 276.289062 C 598.265625 275.351562 588.726562 274.742188 574.8125 275.871094 C 570.523438 276.222656 575.605469 274.15625 572.710938 273.160156 C 555.214844 272.917969 530.386719 276.886719 511.328125 274.972656 C 502.289062 274.078125 496.5625 275.085938 486.347656 275.171875 C 477.613281 275.238281 469.070312 271.65625 459.265625 270.59375 C 451.207031 269.730469 439.203125 272.527344 427.011719 270.824219 C 427.230469 269.839844 430.105469 270.570312 430.105469 269.441406 C 394.710938 270.671875 351.269531 270.835938 317.753906 274.367188 C 277.320312 271.753906 230.539062 278.371094 193.953125 278.007812 C 194.835938 276.976562 196.5625 276.511719 199.148438 276.601562 C 163.367188 273.867188 108.417969 273.390625 62.820312 274.886719 C 58.5 275.273438 58.386719 278.359375 52.441406 277.683594 C 49.679688 281.601562 41.308594 281.878906 35.828125 283.273438 C 34.867188 283.515625 31.757812 285.320312 30.632812 285.351562 C 14.019531 286.0625 18.96875 273.445312 9.683594 267.085938 C 4.777344 269.085938 -0.308594 269.875 -4.882812 267.195312 C -4.539062 262.878906 3.0625 263.277344 5.472656 260.300781 C 4.136719 259.339844 -0.375 258.109375 -0.761719 260.347656 C -3.125 258.972656 -3.082031 256.792969 -0.792969 255.566406 C -4.484375 255.222656 -3.324219 258 -7.015625 257.65625 C -7.46875 256.230469 -6.320312 255.84375 -5.988281 254.914062 C -9.316406 254.539062 -9.207031 256.21875 -11.207031 254.957031 C -11.484375 250.699219 -10.953125 246.96875 -7.105469 245.375 C -28.03125 241.027344 -44.988281 229.949219 -62.460938 221.230469 C -62 217.003906 -56.714844 215.886719 -56.285156 211.636719 C -43.539062 209.125 -35.335938 207.875 -19.90625 207.269531 C -17.429688 205.917969 -21.828125 203.460938 -18.898438 201.800781 C -14.523438 202.445312 -8.410156 202.246094 -5.378906 198.96875 C -9.207031 197.996094 -11.085938 198.769531 -15.792969 197.683594 C -15.109375 196.09375 -12.34375 195.828125 -11.660156 194.234375 C -18.269531 190.328125 -7.746094 184.242188 -11.769531 179.902344 C -10 178.320312 -5.898438 180.976562 -2.394531 180.523438 C -7.867188 178.421875 3.1875 179.304688 4.867188 177.734375 C 4.425781 176.320312 -3.820312 179.273438 -1.378906 176.417969 C -11.792969 177.492188 -8.730469 175.976562 -16.988281 176.539062 C -15.726562 166.160156 0.277344 162.144531 17.214844 157.175781 C 14.835938 155.109375 10.902344 151.15625 12.980469 148.335938 C 11.566406 147.03125 7.15625 149.507812 4.667969 149.753906 C 4.667969 147.714844 7.351562 147.417969 7.75 145.648438 C 5.285156 144 5.816406 146.675781 2.554688 146.355469 C 5.617188 142.339844 11.265625 143.632812 16.054688 141.488281 C 11.320312 138.898438 6.378906 141.375 0.445312 141.609375 C 0.886719 140.523438 3.707031 140.988281 2.511719 138.863281 C -0.449219 138.765625 0.488281 141.1875 -3.722656 140.269531 C -4.242188 138.132812 -0.539062 138.699219 -1.667969 136.164062 C -7.027344 136.960938 -13.570312 137.613281 -18.3125 136.960938 C -18.335938 134.460938 -14.6875 134.328125 -13.140625 132.832031 C -16.589844 131.726562 -19.011719 133.542969 -23.53125 133.585938 C -23.960938 130.585938 -23.984375 127.433594 -16.300781 126.714844 C -16.644531 125.132812 -16.148438 124.09375 -15.285156 123.285156 C -19.652344 121.371094 -21.5625 122.542969 -30.902344 122.035156 C -32.5625 118.980469 -26.59375 116.691406 -27.84375 114.511719 C -30.703125 109.53125 -36.507812 110.472656 -44.554688 110.539062 C -41.21875 107.78125 -42.777344 106.011719 -39.402344 103.675781 C -44.597656 101.628906 -40.765625 99.109375 -40.507812 94.816406 C -38.640625 94.714844 -38.308594 95.632812 -36.34375 95.46875 C -33.976562 88.164062 -15.769531 91.085938 -13.539062 83.707031 C -18.347656 82.34375 -15.375 75.792969 -19.851562 74.1875 C -14.046875 65.261719 -19.273438 49.203125 -0.273438 48.796875 C -1.378906 45.863281 -4.773438 44.480469 -10.707031 44.777344 C -9.757812 41.648438 -12.929688 41.226562 -16.964844 41.402344 C -15.308594 37.929688 -14.675781 37.6875 -19.085938 35.972656 C -14.367188 29.960938 -15.59375 23.910156 -10.917969 15.433594 C 32.082031 17.8125 91.726562 17.691406 129.609375 19.847656 C 130.613281 19.828125 130.40625 19.007812 130.636719 18.476562 C 138.882812 22.25 151.628906 20.046875 159.761719 17.582031 C 159.222656 18.132812 158.691406 18.699219 158.746094 19.640625 C 163.289062 20.082031 164.59375 18.445312 169.136719 18.886719 C 178.089844 20.324219 211.253906 16.042969 232.585938 15.6875 C 255.996094 15.289062 280.371094 12.105469 291.855469 9.105469 C 295.582031 14.949219 307.488281 12.691406 319.976562 12.304688 C 323.136719 12.027344 321.757812 14.78125 324.15625 15.003906 C 330.535156 11.960938 349.070312 16.640625 356.398438 12.722656 C 357.019531 10.941406 355.96875 10.265625 353.269531 10.6875 C 360.644531 8.277344 369.894531 10.929688 378.230469 9.136719 C 377.546875 8.453125 375.832031 8.453125 376.140625 7.101562 C 390.367188 7.867188 405.476562 10.113281 414.6875 13.640625 C 419.75 12.238281 422.878906 14.351562 427.1875 14.914062 C 439.558594 16.53125 458.238281 13.386719 472.960938 13.210938 C 518.335938 12.644531 562.917969 16.386719 605.132812 13.597656 C 605.816406 14.285156 607.53125 14.285156 607.222656 15.632812 C 640.171875 15.101562 666.425781 12.644531 698.769531 12.910156 C 699.078125 11.109375 696.589844 11.164062 694.589844 10.886719 C 702.871094 10.15625 710.664062 12.703125 717.503906 14.128906 C 724.710938 9.347656 730.304688 14.78125 740.398438 14.648438 C 740.996094 16.152344 738.429688 15.632812 738.332031 16.71875 C 772.1875 19.0625 802.453125 8.441406 837.164062 13.929688 C 838.5 12.757812 840.578125 12.058594 843.398438 11.847656 C 842.425781 16.207031 832.785156 14.957031 827.824219 16.730469 C 843.773438 16.839844 863.019531 14.605469 881.941406 18.378906 C 888.519531 11.980469 907.367188 15.867188 922.488281 13.984375 C 922.785156 15.089844 921.515625 15.167969 921.460938 16.042969 C 926.367188 15.976562 929.363281 17.195312 933.960938 17.316406 C 934.027344 14.992188 930.09375 15.324219 926.664062 15.324219 C 934.96875 11.9375 946.617188 17.757812 950.5625 11.042969 C 956.203125 11.839844 959.980469 11.839844 963.042969 9.582031 C 963.34375 10.6875 962.070312 10.765625 962.015625 11.648438 C 990.820312 15.433594 1023.609375 14.96875 1060.890625 15.015625 C 1060.40625 12.371094 1053.71875 13.863281 1051.507812 12.359375 C 1086.847656 8.949219 1126.707031 19.042969 1162.839844 11.527344 C 1157.679688 9.402344 1145.996094 9.8125 1142.003906 8.960938 C 1139.847656 8.574219 1135.183594 9.859375 1134.730469 8.332031 C 1146.601562 8.597656 1150.691406 6.570312 1160.742188 6.769531 C 1162.34375 5.996094 1162.886719 4.535156 1165.925781 4.691406 C 1163.671875 6.128906 1166.457031 6.636719 1165.957031 8.785156 C 1170.457031 9.425781 1171.71875 7.976562 1174.269531 7.355469 C 1179.984375 10.355469 1185.257812 9.160156 1191.96875 7.222656 C 1228.082031 13.851562 1274.207031 8.011719 1314.777344 10.398438 C 1304.980469 13.773438 1290.425781 10.378906 1281.503906 14.75 C 1283.304688 16.519531 1291.828125 13.820312 1289.859375 18.101562 C 1294.316406 18.488281 1294.082031 15.84375 1298.171875 16 C 1299.511719 16.882812 1299.523438 18.511719 1298.195312 19.417969 C 1306.652344 17.757812 1322.324219 18.066406 1332.550781 21.894531 C 1329.433594 21.917969 1326.316406 21.941406 1323.175781 21.960938 C 1344.808594 23.601562 1378.214844 27.550781 1403.351562 26.832031 C 1405.617188 30.316406 1407.761719 26.929688 1415.886719 28.769531 Z M 667.597656 17.238281 C 672.75 16.871094 678.199219 17.679688 673.855469 19.914062 C 678.085938 20.160156 679.171875 18.378906 682.15625 17.8125 C 677.757812 17.800781 679.679688 16.273438 681.09375 15.089844 C 677.082031 17.59375 668.214844 12.734375 667.597656 17.238281 Z M 1173.296875 12.8125 C 1171.992188 12.667969 1171.164062 11.761719 1171.21875 13.5 C 1176.546875 13.375 1181.621094 12.757812 1184.75 13.398438 C 1184.429688 10.5 1175.730469 10.996094 1173.296875 12.8125 Z M 886.207031 29.941406 C 885.214844 32.441406 892.035156 31.355469 891.414062 29.90625 C 888.828125 29.851562 888.1875 28.65625 886.207031 29.941406 Z M 893.503906 31.257812 C 896.996094 30.792969 903.175781 32.066406 904.945312 30.492188 C 899.394531 30.160156 897.074219 28.28125 893.503906 31.257812 Z M 738.695312 63.800781 C 741.667969 65.847656 747.550781 63.289062 748.082031 65.78125 C 751.175781 65.800781 753.351562 63.734375 755.363281 65.050781 C 755.355469 64.140625 755.355469 63.234375 755.34375 62.316406 C 750.179688 63.058594 743.082031 62.550781 738.695312 63.800781 Z M 1225.957031 97.050781 C 1229.074219 96.351562 1233.519531 96.484375 1234.261719 94.261719 C 1230.179688 94.339844 1225.117188 93.796875 1225.957031 97.050781 Z M 1248.882812 101.652344 C 1263.289062 100.300781 1242.648438 99.683594 1240.5625 101.71875 C 1244.019531 101.5625 1246.730469 101.851562 1248.882812 101.652344 Z M 305.363281 146.167969 C 306.183594 146.71875 311.730469 146.84375 311.585938 144.761719 C 308.835938 144.796875 305.464844 144.429688 305.363281 146.167969 Z M 615.742188 183.457031 C 617.070312 180.921875 609.554688 180.789062 608.449219 182.148438 C 612.527344 181.476562 611.101562 184.496094 615.742188 183.457031 Z M 632.390625 183.324219 C 641.644531 184.507812 649.359375 183.300781 660.488281 183.800781 C 654.796875 182.835938 638.148438 180.710938 632.390625 183.324219 Z M 686.511719 183.621094 C 684.875 183.566406 682.90625 183.742188 683.382812 182.273438 C 677.082031 183.722656 667.507812 182.171875 662.566406 182.425781 C 674.007812 184.683594 679.445312 185.183594 686.511719 183.621094 Z M 577.265625 187.152344 C 570.191406 188.257812 560.210938 185.390625 557.5 187.980469 C 569.703125 189.808594 596.675781 190.539062 610.570312 187.582031 C 599.574219 186.886719 592.839844 185.269531 582.472656 186.433594 C 590.550781 188.910156 575.242188 185.570312 575.1875 185.800781 C 576.347656 185.945312 576.800781 186.554688 577.265625 187.152344 Z M 693.816406 186.289062 C 696.25 186.277344 698.660156 186.253906 701.089844 186.234375 C 701.511719 183.488281 694.027344 185.160156 693.816406 186.289062 Z M 613.699219 187.5625 C 613.058594 187.605469 612.472656 187.683594 612.660156 188.246094 C 617.226562 188.578125 631.394531 187.683594 619.933594 187.515625 C 617.765625 186.035156 616.574219 188.148438 614.726562 186.875 C 614.660156 186.453125 614.5625 186.066406 613.675781 186.1875 C 613.6875 186.652344 613.6875 187.105469 613.699219 187.5625 Z M 554.417969 192.097656 C 553.367188 193.46875 550.546875 193.691406 549.234375 194.863281 C 571.882812 195.925781 610.539062 194.996094 636.636719 194.210938 C 613.535156 190.539062 581.753906 194.433594 554.417969 192.097656 Z M 1301.789062 219.316406 C 1312.476562 223.644531 1327.996094 225.238281 1341.359375 224.496094 C 1327.71875 223.886719 1312.730469 217.191406 1301.789062 219.316406 Z M 1256.046875 226.488281 C 1259.394531 228.535156 1268.226562 228.101562 1271.65625 226.378906 C 1271.378906 227.9375 1271.921875 228.933594 1273.753906 229.085938 C 1275.546875 227.683594 1272.96875 227.761719 1274.773438 226.34375 C 1269.011719 223.667969 1262.910156 225.050781 1256.046875 226.488281 Z M 1237.320312 227.304688 C 1241.488281 227.050781 1243.101562 228.480469 1247.734375 227.914062 C 1247.382812 224.429688 1237.386719 225.890625 1237.320312 227.304688 Z M 1327.898438 232.785156 C 1331.289062 233.359375 1334.375 233.238281 1340.386719 233.371094 C 1340.277344 230.226562 1331.378906 232.195312 1327.898438 232.785156 Z M 400.933594 264.207031 C 398.359375 265.382812 390.832031 262.980469 387.40625 264.992188 C 389.726562 267.050781 399.410156 266.664062 400.933594 264.207031 Z M 853.632812 267.695312 C 849.820312 268.226562 847.839844 266.054688 845.308594 267.761719 C 849.179688 270.847656 857.84375 269.882812 865.085938 269.652344 C 876.769531 269.285156 887.800781 267.5625 899.417969 268.722656 C 888.351562 264.984375 862.277344 267.0625 853.632812 267.695312 Z M 916.066406 267.902344 C 920.640625 268.734375 931.386719 267.96875 937.917969 266.375 C 930.28125 267.195312 917.136719 263.820312 916.066406 267.902344 Z M 979.535156 266.066406 C 979.316406 269.097656 969.367188 265.84375 969.15625 268.878906 C 974.363281 269.960938 978.078125 269.019531 982.6875 268.101562 C 983.195312 269.894531 983.515625 270.394531 985.835938 272.164062 C 1007.480469 266.167969 1028.472656 275.726562 1049.296875 269.652344 C 1026.359375 266.6875 1002.417969 269.996094 979.535156 266.066406 Z M 788.085938 270.214844 C 782.789062 270.226562 776.070312 267.316406 773.539062 271.699219 C 792.261719 272.792969 810.867188 272.273438 829.703125 268.554688 C 816.183594 268.488281 801.171875 270.183594 788.085938 270.214844 Z M 788.085938 270.214844 "/>
</g>
</svg>
