<?xml version="1.0" encoding="UTF-8"?>
<svg width="169px" height="56px" viewBox="0 0 169 56" version="1.1" xmlns="http://www.w3.org/2000/svg" xmlns:xlink="http://www.w3.org/1999/xlink">
    <title>Group Copy 3</title>
    <g id="Symbols" stroke="none" stroke-width="1" fill="none" fill-rule="evenodd">
        <g id="Group-Copy-3" fill-rule="nonzero">
            <g id="Group">
                <path d="M31.5864545,52.0586667 C27.4510909,52.0586667 24.0022727,51.1306667 21.1327273,49.2586667 C14.8733636,45.1733333 11.8536364,36.816 10.4215455,30.5226667 C8.76954545,23.2693333 8.97336364,17.5946667 11.0383636,13.1573333 L11.0383636,13.1573333 C14.4818182,5.77066667 21.1166364,1.024 29.2425455,0.149333333 C38.114,-0.810666667 46.9371818,2.91733333 52.274,9.88266667 C56.6721818,15.6266667 58.5762727,23.904 57.2460909,31.488 C55.9105455,39.104 51.3460909,45.8186667 45.3334545,49.008 C42.9412727,50.2773333 40.1736364,51.12 36.6229091,51.6533333 C34.8368182,51.9253333 33.1633636,52.0586667 31.5864545,52.0586667 Z M32.0101818,2.112 C31.1680909,2.112 30.3206364,2.15466667 29.4731818,2.25066667 C22.1089091,3.04533333 16.0962727,7.34933333 12.9692727,14.048 L12.9692727,14.048 C11.1080909,18.0426667 10.9525455,23.2746667 12.4972727,30.0533333 C13.8435455,35.9626667 16.638,43.7866667 22.302,47.488 C25.8044545,49.776 30.385,50.4533333 36.3010909,49.5626667 C39.6050909,49.0666667 42.1581818,48.2933333 44.3304545,47.1413333 C49.7745455,44.2506667 53.9206364,38.112 55.1489091,31.12 C56.3825455,24.096 54.634,16.448 50.5790909,11.1573333 C46.2023636,5.45066667 39.2564545,2.112 32.0101818,2.112 Z" id="Shape" fill="#00FFAF"></path>
                <path d="M23.187,47.6533333 C19.0033636,47.6533333 15.517,46.8693333 12.6152727,45.2853333 C6.21109091,41.792 3.11627273,34.6293333 1.64663636,29.2373333 C-0.059,22.9866667 0.155545455,18.08 2.29563636,14.2453333 L3.22354545,14.7573333 L2.29563636,14.2453333 C5.69081818,8.16 12.1700909,4.13866667 20.06,3.22133333 C29.1728182,2.16533333 38.6396364,5.38133333 44.1802727,11.4186667 C48.7125455,16.3626667 50.6702727,23.4986667 49.2971818,30.0426667 C47.9187273,36.5866667 43.2523636,42.3466667 37.111,45.072 C34.6866364,46.144 31.8814545,46.8586667 28.2824545,47.312 C26.4749091,47.5413333 24.78,47.6533333 23.187,47.6533333 Z M23.5517273,5.136 C22.4736364,5.136 21.3901818,5.2 20.3067273,5.32266667 C12.9960909,6.17066667 7.257,9.70666667 4.15145455,15.2693333 C2.29027273,18.6026667 2.14009091,22.992 3.69554545,28.6826667 C5.05790909,33.68 7.88990909,40.2933333 13.6343636,43.4293333 C17.2333636,45.392 21.9372727,45.9786667 28.0089091,45.2106667 C31.3933636,44.784 34.0108182,44.128 36.2367273,43.136 C41.7666364,40.6826667 45.9717273,35.4986667 47.2107273,29.6053333 C48.4497273,23.712 46.6850909,17.2853333 42.6087273,12.8373333 C38.1676364,8.00533333 30.9374545,5.136 23.5517273,5.136 Z" id="Shape" fill="#00B9C3"></path>
                <path d="M23.187,55.808 C19.0033636,55.808 15.517,55.024 12.6152727,53.44 C6.21109091,49.9466667 3.11627273,42.784 1.64663636,37.392 C-0.059,31.1413333 0.155545455,26.2346667 2.29563636,22.4 L3.22354545,22.912 L2.29563636,22.4 C5.69081818,16.3146667 12.1700909,12.2933333 20.06,11.376 C29.1728182,10.3146667 38.6396364,13.536 44.1802727,19.5733333 C48.7125455,24.5173333 50.6702727,31.6533333 49.2971818,38.1973333 C47.9187273,44.7413333 43.2523636,50.5013333 37.111,53.2266667 C34.6866364,54.2986667 31.8814545,55.0133333 28.2824545,55.4666667 C26.4749091,55.696 24.78,55.808 23.187,55.808 Z M23.5517273,13.2906667 C22.4736364,13.2906667 21.3901818,13.3546667 20.3067273,13.4773333 C12.9960909,14.3253333 7.257,17.8613333 4.15145455,23.424 C2.29027273,26.7573333 2.14009091,31.1466667 3.69554545,36.8373333 C5.05790909,41.8346667 7.88990909,48.448 13.6343636,51.584 C17.2333636,53.5466667 21.9372727,54.1333333 28.0089091,53.3653333 C31.3933636,52.9386667 34.0108182,52.2826667 36.2367273,51.2906667 C41.7666364,48.8373333 45.9717273,43.6533333 47.2107273,37.76 C48.4497273,31.8666667 46.6850909,25.44 42.6087273,20.992 C38.1676364,16.16 30.9374545,13.2906667 23.5517273,13.2906667 Z" id="Shape" fill="#00D7D8"></path>
                <ellipse id="Oval" fill="#00FFAF" cx="56.4469091" cy="25.4826667" rx="2.42972727" ry="2.416"></ellipse>
                <ellipse id="Oval" fill="#00D7D8" cx="21.3633636" cy="12.3466667" rx="2.42972727" ry="2.416"></ellipse>
                <ellipse id="Oval" fill="#00B9C3" cx="33.512" cy="44.9653333" rx="2.42972727" ry="2.416"></ellipse>
            </g>
            <g id="Group" transform="translate(70.000000, 18.000000)" fill="#FFFFFF">
                <path d="M0.263686275,4.9608 C0.450196078,1.67232 3.28,0.58032 6.13552941,0.58032 C9.23545098,0.58032 11.9816471,1.97184 11.9816471,5.0232 C11.9816471,8.5176 9.50556863,9.52848 6.15482353,9.52848 C4.92643137,9.52848 3.15780392,9.672 3.15780392,11.44416 L3.15780392,11.98704 L11.8787451,11.98704 L11.8787451,14.89488 L0.0964705882,14.89488 C0.0964705882,13.74672 0.0964705882,12.59232 0.0964705882,11.4192 C0.0964705882,7.62528 3.28,6.77664 6.15482353,6.77664 C7.216,6.77664 8.79811765,6.47088 8.79811765,5.07936 C8.79811765,3.90624 7.77552941,3.26352 6.13552941,3.26352 C4.82352941,3.26352 3.47294118,3.8064 3.38933333,4.9608 L0.263686275,4.9608 Z" id="Path"></path>
                <path d="M22.304,0.76128 C25.0694902,0.76128 27.3590588,1.97184 27.3590588,4.59888 C27.3590588,5.772 26.8188235,6.85776 25.4232157,7.488 C27.275451,8.13696 28.0472157,9.9528 27.7320784,11.58768 C27.2947451,13.87152 25.3396078,14.90112 22.4261961,14.90112 C20.0723137,14.90112 17.4933333,14.90112 15.1201569,14.90112 L15.1201569,0.76752 L22.304,0.76752 L22.304,0.76128 Z M18.3036863,6.25248 L22.2589804,6.25248 C23.5259608,6.25248 24.1498039,5.74704 24.1498039,4.91712 C24.1498039,4.0872 23.5259608,3.48192 22.2975686,3.48192 L18.3036863,3.48192 L18.3036863,6.25248 Z M18.3036863,12.14928 L22.2975686,12.14928 C23.7574902,12.14928 24.4392157,11.52528 24.4392157,10.53312 C24.4392157,9.54096 23.6931765,8.87952 22.252549,8.87952 C20.9598431,8.87952 19.5899608,8.87952 18.2972549,8.87952 L18.2972549,12.14928 L18.3036863,12.14928 Z" id="Shape"></path>
                <path d="M43.5918431,14.89488 L39.9902745,14.89488 L36.2665098,10.25232 L33.9126275,10.25232 L33.9126275,14.89488 L30.6647843,14.89488 L30.6647843,0.76128 C33.0379608,0.76128 35.2246275,0.76128 37.5720784,0.76128 C41.0900392,0.76128 42.9615686,3.04512 42.9615686,5.52864 C42.9422745,7.3632 42.3763137,9.00432 39.5915294,9.97152 L43.5854118,14.65776 L43.5854118,14.89488 L43.5918431,14.89488 Z M33.9126275,3.46944 L33.9126275,7.58784 L37.617098,7.58784 C39.1156078,7.58784 39.7587451,6.49584 39.7587451,5.60976 C39.739451,4.64256 39.0898824,3.46944 37.5720784,3.46944 L33.9126275,3.46944 Z" id="Shape"></path>
                <path d="M56.4996078,12.47376 L49.0263529,12.47376 L47.9651765,14.89488 L44.4665098,14.89488 L51.0007843,0.76128 L54.5380392,0.76128 L61.0723137,14.89488 L57.5543529,14.89488 L56.4996078,12.47376 Z M52.7694118,3.94992 L50.2483137,9.68448 L55.2647843,9.68448 L52.7694118,3.94992 Z" id="Shape"></path>
                <polygon id="Path" points="63.0338824 14.89488 63.0338824 0.76128 66.2624314 0.76128 66.2624314 14.89488"></polygon>
                <polygon id="Path" points="80.0577255 9.94656 79.8519216 5.50368 79.8519216 0.76128 83.1190588 0.76128 83.1190588 14.89488 80.3278431 14.89488 73.0861176 5.84688 73.2083137 10.48944 73.2083137 14.89488 69.9218824 14.89488 69.9218824 0.76128 72.713098 0.76128"></polygon>
                <path d="M95.396549,4.17456 C94.5861961,3.34464 93.1712941,2.98272 92.0265098,2.98272 C90.5923137,2.98272 89.4218039,3.56928 89.4218039,4.53648 C89.4218039,5.82816 90.6887843,6.07152 92.5667451,6.23376 C95.4415686,6.47712 98.1620392,7.54416 98.1620392,10.82016 C98.1620392,13.97136 95.1650196,15.34416 92.0200784,15.36288 C89.4989804,15.3816 86.8814118,14.43312 85.6530196,12.45504 L87.5888627,10.49568 C88.7143529,11.8872 90.5665882,12.49248 92.0458039,12.49248 C93.7758431,12.49248 94.9592157,11.8248 94.9592157,10.81392 C94.9785098,9.62208 94.0009412,9.0792 92.0265098,8.91696 C88.9458824,8.63616 86.1996863,7.88736 86.2382745,4.5552 C86.2575686,1.7472 89.0037647,0.25584 92.0007843,0.25584 C94.2453333,0.25584 95.9367843,0.74256 97.4352941,2.43984 L95.396549,4.17456 Z" id="Path"></path>
            </g>
        </g>
    </g>
</svg>