<?xml version="1.0" encoding="UTF-8"?>
<svg width="238px" height="35px" viewBox="0 0 238 35" version="1.1" xmlns="http://www.w3.org/2000/svg" xmlns:xlink="http://www.w3.org/1999/xlink">
    <!-- Generator: Sketch 50.2 (55047) - http://www.bohemiancoding.com/sketch -->
    <title>vida security</title>
    <desc>Created with Sketch.</desc>
    <defs></defs>
    <g id="Page-1" stroke="none" stroke-width="1" fill="none" fill-rule="evenodd">
        <g id="Home" transform="translate(-70.000000, -10.000000)">
            <g id="vida-security" transform="translate(70.000000, 10.000000)">
                <polygon id="Fill-1" fill="#ED6E00" points="0.0233619632 34.8931771 118.955466 34.8931771 118.955466 0.106822917 0.0233619632 0.106822917"></polygon>
                <polygon id="Fill-2" fill="#2B0D61" points="118.955466 34.8931771 237.976273 34.8931771 237.976273 0.106822917 118.955466 0.106822917"></polygon>
                <g id="Group-17" stroke-width="1" transform="translate(72.276074, 7.291667)" fill="#FFFFFE">
                    <path d="M11.4886469,4.4883125 L9.28751196,4.4883125 L6.50159785,11.0271146 C6.18146595,11.7599271 5.9511316,12.404875 5.73795368,13.0151875 L5.70254571,13.0151875 C5.48973282,12.3881042 5.22362546,11.6727917 4.95715307,10.9749792 L2.41909479,4.4883125 L0.0759628834,4.4883125 L4.81515613,16.0324792 L6.35923589,16.0324792 L11.4886469,4.4883125 Z" id="Fill-3"></path>
                    <polygon id="Fill-5" points="12.8034509 15.9618229 14.9509264 15.9618229 14.9509264 4.47161458 12.8034509 4.47161458"></polygon>
                    <path d="M25.0642107,10.1558333 C25.0642107,12.2831771 23.9103488,14.18375 20.8397107,14.18375 L19.4734009,14.18375 L19.4734009,6.2496875 L20.8221893,6.2496875 C23.6621279,6.2496875 25.0642107,7.85385417 25.0642107,10.1558333 M27.3540482,10.1204688 C27.3540482,6.75572917 25.1178702,4.47161458 20.8754837,4.47161458 L17.3259255,4.47161458 L17.3259255,15.9618229 L20.7338518,15.9618229 C24.8689193,15.9618229 27.3540482,13.5559375 27.3540482,10.1204688" id="Fill-7"></path>
                    <path d="M32.5356586,7.29647917 C32.6068396,7.69679167 32.7959255,8.15033333 32.9912169,8.69101042 L35.7424531,15.9618958 L37.8548856,15.9618958 L33.3109837,4.41955208 L31.7512077,4.41882292 L27.2069408,15.9618958 L29.3193733,15.9618958 L32.0706095,8.69101042 C32.2659009,8.15033333 32.4520666,7.69679167 32.5225175,7.29647917 L32.5356586,7.29647917 Z" id="Fill-8"></path>
                    <path d="M62.4672613,7.93380729 L62.4672613,4.48193229 L61.928111,4.48193229 C61.7696877,4.86073438 61.547384,5.01969271 61.2622951,5.01969271 C60.5004761,5.01969271 60.1518718,4.48193229 58.9779331,4.48193229 C57.1071509,4.48193229 55.5528503,5.96979688 55.5528503,7.71250521 C55.5528503,11.5140156 61.5156264,10.6583385 61.5156264,13.7955781 C61.5156264,14.9035469 60.6596294,15.7275052 59.5492061,15.7275052 C58.1540589,15.7275052 56.4092123,14.8087552 55.9335773,12.4652135 L55.394427,12.4652135 L55.394427,16.2980781 L55.9335773,16.2980781 C55.9657,15.8853698 56.2504239,15.5371927 56.6625436,15.5371927 C57.2016939,15.5371927 58.2803595,16.361151 59.5174485,16.361151 C61.452111,16.361151 63.070292,14.777401 63.070292,12.9074531 C63.070292,8.72714062 57.1703012,9.48693229 57.1703012,6.63516146 C57.1703012,5.71750521 57.9317552,5.11521354 59.0421785,5.11521354 C60.3741755,5.11521354 61.6112644,6.06568229 61.8335681,7.93380729 L62.4672613,7.93380729 Z" id="Fill-9"></path>
                    <path d="M67.0074764,8.63420833 C67.133777,6.54332292 68.2445653,5.14879167 70.1157126,5.14879167 C71.5437126,5.14879167 73.2243138,6.1630625 73.1294058,8.63420833 L67.0074764,8.63420833 Z M75.2546144,9.1730625 C75.4126727,6.57467708 73.0027402,4.48379167 70.4015316,4.48379167 C67.2297801,4.48379167 64.7552371,7.14525 64.7552371,10.5347812 C64.7552371,13.9246771 67.2929304,16.3641042 70.8140163,16.3641042 C72.7804365,16.3641042 74.0806758,15.6987396 75.4447954,13.9560312 L75.4447954,13.1320729 C73.8273445,14.9382187 73.0341328,15.4767083 71.4798322,15.4767083 C69.9572893,15.4767083 66.9443261,14.2097812 67.0074764,9.1730625 L75.2546144,9.1730625 Z" id="Fill-10"></path>
                    <path d="M87.1624991,4.48364583 L86.6229837,4.48364583 C86.4328028,4.89598958 86.1473488,5.11802083 85.8618948,5.11802083 C85.2913518,5.11802083 84.3711095,4.48364583 82.6901433,4.48364583 C79.486269,4.48364583 76.8861555,7.24098958 76.8861555,10.6928646 C76.8861555,14.0517708 79.200815,16.3639583 82.5317199,16.3639583 C84.5609255,16.3639583 86.2743794,15.54 87.4797107,13.8928125 L87.4797107,13.0688542 C86.3057721,14.6854167 84.6569285,15.4138542 83.2928089,15.4138542 C81.009177,15.4138542 79.0745144,12.8479167 79.0745144,9.77484375 C79.0745144,7.01895833 80.628815,5.11802083 82.8485666,5.11802083 C84.7200788,5.11802083 86.1473488,6.41666667 86.6229837,8.44484375 L87.1624991,8.44484375 L87.1624991,4.48364583 Z" id="Fill-11"></path>
                    <path d="M100.32974,4.48364583 L99.7905893,4.48364583 L95.9844144,4.83291667 L95.9844144,5.37177083 C97.9198071,5.40239583 98.1731383,5.59270833 98.1731383,7.14510417 L98.1731383,13.1953646 C97.252896,14.4309375 96.2702334,15.0328646 95.1919328,15.0328646 C93.6693899,15.0328646 92.6546046,14.0834896 92.6546046,12.4997396 L92.6546046,4.48364583 L92.1150893,4.48364583 L88.4990954,4.83291667 L88.4990954,5.37177083 C90.1169113,5.37177083 90.4972733,5.78338542 90.4972733,6.86 L90.4972733,12.5941667 C90.4972733,14.6854167 91.956666,16.3639583 94.1764175,16.3639583 C95.6993255,16.3639583 96.9995647,15.6358854 98.109623,14.1782813 L98.1731383,14.1782813 L98.1731383,16.0176042 L102.264767,16.0157812 L102.264767,15.4769271 C100.742224,15.4769271 100.32974,15.1283854 100.32974,13.8928125 L100.32974,4.48364583 Z" id="Fill-12"></path>
                    <path d="M107.847656,7.46560938 C108.862806,6.48269271 109.497594,6.10389063 110.227291,6.10389063 C110.988015,6.10389063 111.971772,6.57857813 112.89165,7.08571354 L113.747647,5.08925521 C113.176739,4.58211979 112.320377,4.20331771 111.685953,4.20331771 C110.924499,4.20331771 109.941837,4.83659896 107.847656,6.64165104 L107.847656,4.20331771 L107.308506,4.20331771 L103.375665,4.55040104 L103.375665,5.08925521 C105.27857,5.08925521 105.691055,5.27993229 105.691055,6.92675521 L105.691055,13.3215469 C105.691055,15.0318073 105.500874,15.4751406 103.78815,15.4751406 L103.78815,16.0136302 L109.719533,16.0136302 L109.719533,15.4751406 C108.229113,15.4751406 107.847656,15.1276927 107.847656,13.8921198 L107.847656,7.46560938 Z" id="Fill-13"></path>
                    <path d="M118.127431,0.0256666667 C117.366342,0.0256666667 116.731918,0.6265 116.731918,1.38738542 C116.731918,2.14827083 117.366342,2.78191667 118.127431,2.78191667 C118.888885,2.78191667 119.49155,2.14827083 119.49155,1.38738542 C119.49155,0.6265 118.888885,0.0256666667 118.127431,0.0256666667 Z M119.174339,4.22894792 L118.635188,4.22894792 L114.892164,4.57748958 L114.892164,5.11634375 C116.541372,5.11634375 117.017007,5.32707292 117.017007,6.878375 L117.017007,13.7536875 C117.017007,15.0840521 116.604888,15.4748854 114.892164,15.4748854 L114.892164,16.0137396 L121.045486,16.0137396 L121.045486,15.4748854 C119.459793,15.4748854 119.174339,14.8620208 119.174339,13.7536875 L119.174339,4.22894792 Z" id="Fill-14"></path>
                    <path d="M134.762974,7.10328646 C134.349394,6.15099479 134.610026,5.56328646 135.468578,5.43568229 L135.468578,4.61099479 L130.062474,4.61099479 L130.062474,5.43568229 C131.366363,5.46740104 131.877771,5.80099479 132.450504,7.10328646 L136.39101,16.2062031 L135.637222,18.1614635 C134.937458,20.1309427 134.142421,20.9250052 132.775017,20.9250052 C132.39356,20.9250052 132.139133,20.8608385 131.693796,20.670526 L130.962274,22.6082865 C131.535007,22.9575573 131.884707,23.0847969 132.361437,23.0847969 C133.729207,23.0847969 135.191885,21.5921927 136.082194,18.9872448 L139.857342,7.85214062 C140.493225,5.97745312 141.224747,5.21547396 142.432998,5.21547396 L142.432998,4.61099479 L138.457814,4.61099479 L138.457814,5.21547396 C139.698553,5.27891146 139.793461,6.00990104 139.348489,7.34391146 L137.376958,13.2837031 L134.762974,7.10328646 Z" id="Fill-15"></path>
                    <path d="M126.151754,0.830119792 L125.610779,0.830119792 C124.656953,2.76788021 123.384821,4.13433854 121.858628,4.89595313 L121.858628,5.43590104 L123.988947,5.43590104 L123.988947,12.9641823 C123.988947,14.9019427 125.32496,16.2359531 127.23261,16.2359531 C128.504742,16.2359531 129.649843,15.6004844 130.635791,14.3619948 L130.285361,13.9485573 C129.61772,14.7112656 129.013594,15.0291823 128.1868,15.0291823 C126.946426,15.0291823 126.151754,14.2347552 126.151754,12.6787135 L126.151754,5.43590104 L130.083134,5.43590104 L130.083134,4.61011979 L126.151754,4.61011979 L126.151754,0.830119792 Z" id="Fill-16"></path>
                </g>
            </g>
        </g>
    </g>
</svg>