<?xml version="1.0" encoding="utf-8"?>
<!-- Generator: Adobe Illustrator 16.0.0, SVG Export Plug-In . SVG Version: 6.00 Build 0)  -->
<!DOCTYPE svg PUBLIC "-//W3C//DTD SVG 1.1//EN" "http://www.w3.org/Graphics/SVG/1.1/DTD/svg11.dtd">
<svg version="1.1" id="Layer_1" xmlns="http://www.w3.org/2000/svg" xmlns:xlink="http://www.w3.org/1999/xlink" x="0px" y="0px"
	 width="112.793px" height="37.967px" viewBox="0 0 112.793 37.967" enable-background="new 0 0 112.793 37.967"
	 xml:space="preserve">
<g>
	<path fill="#2E3168" d="M65.4,25.52c-0.33,0.964-0.819,1.826-1.466,2.588c-0.647,0.764-1.46,1.389-2.438,1.877
		c-0.979,0.49-2.129,0.763-3.452,0.82c-0.489,0.029-1.042,0.051-1.66,0.064c-0.619,0.016-1.345,0.021-2.179,0.021h-9.449V0.906
		h10.14c0.919,0,1.731,0.037,2.438,0.107c0.704,0.073,1.352,0.194,1.941,0.367c0.589,0.172,1.121,0.396,1.596,0.669
		c0.475,0.273,0.941,0.611,1.402,1.014c1.64,1.438,2.459,3.222,2.459,5.35c0,2.071-0.676,3.739-2.027,5.004
		c-0.432,0.403-0.827,0.706-1.187,0.906c-0.36,0.202-0.885,0.417-1.575,0.647c1.869,0.546,3.329,1.445,4.38,2.696
		c1.049,1.251,1.574,2.87,1.574,4.854C65.897,23.557,65.731,24.557,65.4,25.52 M57.98,7.637c-0.302-0.575-0.727-0.978-1.272-1.208
		c-0.259-0.115-0.575-0.208-0.948-0.281c-0.375-0.071-0.893-0.107-1.554-0.107h-3.495V12.9h3.581c0.719,0,1.265-0.028,1.64-0.086
		c0.374-0.057,0.689-0.158,0.949-0.302c0.402-0.23,0.762-0.647,1.079-1.251c0.315-0.604,0.474-1.208,0.474-1.812
		C58.434,8.816,58.283,8.212,57.98,7.637 M58.477,19.457c-0.403-0.689-0.935-1.135-1.596-1.336
		c-0.374-0.115-0.712-0.187-1.015-0.216c-0.302-0.028-0.74-0.043-1.315-0.043h-3.754v8.111h3.927c0.632,0,1.179-0.051,1.64-0.151
		c0.46-0.101,0.848-0.28,1.164-0.539c0.46-0.345,0.834-0.834,1.122-1.468c0.287-0.632,0.432-1.307,0.432-2.027
		C59.081,20.925,58.879,20.148,58.477,19.457"/>
	<path fill="#2E3168" d="M88.914,25.584c-0.59,1.236-1.424,2.302-2.502,3.193c-1.079,0.891-2.381,1.574-3.905,2.049
		s-3.221,0.712-5.091,0.712c-1.726,0-3.479-0.237-5.263-0.712c-1.784-0.475-3.438-1.143-4.962-2.006l2.244-4.703
		c1.408,0.748,2.753,1.338,4.032,1.77c1.28,0.432,2.683,0.646,4.207,0.646c3.509,0,5.264-1.365,5.264-4.099
		c0-1.869-1.31-3.163-3.927-3.883l-3.321-0.906c-1.495-0.403-2.718-0.906-3.667-1.51s-1.697-1.366-2.244-2.287
		c-0.834-1.352-1.25-2.876-1.25-4.573c0-1.38,0.259-2.639,0.775-3.775c0.519-1.136,1.252-2.114,2.201-2.934s2.086-1.452,3.408-1.898
		C76.236,0.223,77.689,0,79.271,0c1.841,0,3.638,0.267,5.394,0.798c1.754,0.532,3.292,1.272,4.616,2.222l-2.848,4.315
		c-1.381-0.834-2.61-1.424-3.689-1.77c-1.078-0.345-2.179-0.518-3.3-0.518c-1.237,0-2.244,0.324-3.02,0.971
		c-0.777,0.647-1.166,1.474-1.166,2.481c0,0.776,0.238,1.388,0.713,1.833c0.474,0.446,1.344,0.841,2.609,1.186l3.624,0.993
		c2.474,0.662,4.357,1.755,5.652,3.279c1.294,1.525,1.94,3.409,1.94,5.652C89.798,22.967,89.504,24.348,88.914,25.584"/>
	<path fill="#2E3168" d="M100.434,27.461c-0.015,0.618-0.043,1.137-0.087,1.553c-0.043,0.418-0.086,0.771-0.129,1.058
		c-0.043,0.288-0.108,0.575-0.194,0.862c-0.23,0.92-0.59,1.754-1.078,2.502c-0.49,0.748-1.058,1.417-1.705,2.007
		c-0.646,0.589-1.337,1.093-2.07,1.51c-0.734,0.417-1.445,0.755-2.135,1.015l-2.805-3.107c0.775-0.488,1.488-1.063,2.135-1.725
		c0.647-0.662,1.101-1.295,1.359-1.898c0.114-0.26,0.216-0.546,0.303-0.863c0.086-0.316,0.15-0.684,0.193-1.1
		c0.043-0.418,0.071-0.914,0.086-1.489s0.022-1.265,0.022-2.07V0.906h6.126v24.16C100.455,26.045,100.447,26.843,100.434,27.461"/>
	<rect x="106.494" y="0.906" fill="#2E3168" width="6.299" height="29.984"/>
	<rect y="25.933" fill="#2E3168" width="29.931" height="4.942"/>
	<rect y="17.604" fill="#2E3168" width="29.931" height="4.942"/>
	<rect x="4.942" y="0.949" fill="#2E3168" width="20.046" height="4.942"/>
	<rect x="4.942" y="9.277" fill="#2E3168" width="20.046" height="4.942"/>
</g>
</svg>
