<svg xmlns:xlink="http://www.w3.org/1999/xlink" width="90" height="20" fill="none" xmlns="http://www.w3.org/2000/svg">
                        <path fill-rule="evenodd" clip-rule="evenodd" d="M76.117 5.77v2.75h8.41l-8.628 8.516h-.057v2.748H89.032v-2.748H80.43l8.602-8.489V5.77H76.117zM66.224 5.77V1.58l-3.023.932V5.77h-2.748v2.748h2.748v6.61c0 1.847.434 3.137 1.386 3.834.697.513 1.713.772 3.193.772.49 0 .917-.03 1.467-.086v-2.75c-.275.024-.876.023-1.292-.001-.57-.034-.957-.194-1.248-.464-.234-.217-.483-.618-.483-1.304V8.519h5.221v11.266h3.023V5.77h-8.244zM38.61 5.404c-2.968-.062-4.536 2.04-4.536 2.04V5.771h-3.298v14.014h3.298v-7.678c0-1.239.318-2.19.932-2.824.617-.637 1.448-.96 2.464-.96.92 0 1.594.279 2.153.828.561.549.771 1.342.771 2.357v8.277h3.297v-8.732c0-1.767-.44-3.166-1.405-4.157-.963-.99-2.197-1.461-3.676-1.492M73.098.328c-.53 0-.976.194-1.368.594-.392.401-.583.855-.583 1.386 0 .53.19.98.581 1.37.392.39.84.582 1.37.582.55 0 1.006-.192 1.398-.582.391-.392.581-.84.581-1.37 0-.53-.19-.985-.583-1.386a1.868 1.868 0 00-1.396-.594M21.856 16.95a4.376 4.376 0 110-8.753 4.376 4.376 0 010 8.752zm4.249-9.623c-1.1-1.299-2.633-2-4.326-2-4.002 0-7.208 3.244-7.208 7.245 0 4.002 3.187 7.246 7.188 7.246 1.89 0 3.522-.723 4.346-1.908v1.874h3.297V5.77h-3.297v1.557zM52.092 16.95a4.376 4.376 0 110-8.753 4.376 4.376 0 010 8.752zm4.24-9.623a5.559 5.559 0 00-4.322-2c-4.002 0-7.205 3.244-7.205 7.245 0 4.002 3.183 7.246 7.184 7.246 1.89 0 3.518-.723 4.342-1.908v1.874h3.298V5.77h-3.298v1.557zM.402 19.784h2.952A11.11 11.11 0 0114.29 8.777V5.83C6.595 5.92.47 12.091.402 19.784" fill="#FF3200"></path>
                        <path fill-rule="evenodd" clip-rule="evenodd" d="M0 0v11.713c.501-.684 2.819-4.294 6.375-5.942H2.748V3.022h11.541V0H0z" fill="#FF3200"></path>
                    </svg>