<svg xmlns="http://www.w3.org/2000/svg" xmlns:xlink="http://www.w3.org/1999/xlink" version="1.1" id="Layer_1" x="0px" y="0px" viewBox="0 0 55.74 43.1" style="enable-background:new 0 0 55.74 43.1;" xml:space="preserve" width="90"  height="70" >
<style type="text/css">
	.st0{fill:#EE314C;}
	.st1{fill:#EA7F32;}
	.st2{fill:#E1E43D;}
	.st3{fill:#14ACE3;}
	.st4{fill:#13A656;}
	.st5{fill:#7C51A1;}
	.st6{fill:#FBAC4B;}
	.st7{fill:#55BA60;}
	.st8{fill:#005595;}
</style>
<polygon class="st0" points="7.71,32.57 0.66,16.27 10.49,16.27 12.63,21.2 "/>
<polygon class="st1" points="7.71,32.57 14.77,16.27 18.51,16.27 18.51,30.24 16.24,35.47 8.97,35.47 "/>
<path class="st2" d="M26.65,11.02c0,2.24-1.82,4.06-4.06,4.06c-2.24,0-4.06-1.82-4.06-4.06c0-2.24,1.82-4.06,4.06-4.06  C24.84,6.96,26.65,8.78,26.65,11.02"/>
<g>
	<path class="st3" d="M35.78,25.85c0-5.16,3.89-9.35,8.98-9.59h-9.72l-2.13,4.93l3.63,8.39C36.05,28.44,35.78,27.17,35.78,25.85z"/>
	<path class="st3" d="M44.87,16.27l-6.82,15.79c-0.61-0.72-1.12-1.54-1.5-2.43l1.27,2.94L44.87,16.27L44.87,16.27z"/>
</g>
<polygon class="st4" points="37.83,32.57 30.79,16.27 26.69,16.27 26.69,29.46 29.3,35.47 36.57,35.47 "/>
<g>
	<defs>
		<rect id="SVGID_1_" x="18.51" y="16.27" width="8.18" height="19.21"/>
	</defs>
	<clipPath id="SVGID_2_">
		<use xlink:href="#SVGID_1_" style="overflow:visible;"/>
	</clipPath>
</g>
<path class="st5" d="M49.48,30.1c0,0.2,0.12,0.38,0.36,0.38c0.22,0,0.32-0.03,0.44-0.17c0.08-0.09,0.11-0.24,0.11-0.45v-0.12h-0.56  C49.62,29.73,49.48,29.89,49.48,30.1z"/>
<path class="st5" d="M44.87,16.27c-2.64,6.1-5.59,12.99-6.83,15.78c1.77,2.09,4.41,3.42,7.36,3.42c2.44,0,4.67-0.91,6.37-2.41h-0.07  v-1.24h0.55c0.2,0,0.3-0.06,0.37-0.34l0.1-0.38l-1.2-4.07h1.16l0.61,2.34l0.58-2.34h1.08c0.05-0.39,0.07-0.78,0.07-1.18  C55.02,20.53,50.18,16.27,44.87,16.27z M46,31.19c-0.21,0.26-0.52,0.41-0.87,0.41c-0.36,0-0.6-0.13-0.81-0.38v1.79h-1.1v-5.98h1.07  v0.37c0.22-0.28,0.46-0.42,0.83-0.42c0.35,0,0.67,0.15,0.88,0.41c0.36,0.45,0.34,1.23,0.34,1.9C46.34,29.95,46.36,30.74,46,31.19z   M48.38,31.55h-0.58c-0.8,0-1.12-0.71-1.12-1.34v-4.64h1.1v4.54c0,0.18,0.07,0.28,0.22,0.28h0.38V31.55z M51.49,31.55h-1.08v-0.37  c-0.22,0.28-0.42,0.41-0.81,0.41c-0.36,0-0.67-0.15-0.87-0.4c-0.21-0.26-0.31-0.64-0.31-1.06c0-0.68,0.37-1.31,1.23-1.31h0.73V28.7  c0-0.41-0.16-0.56-0.54-0.56c-0.28,0-0.4,0.08-0.58,0.3l-0.69-0.86c0.37-0.46,0.71-0.6,1.32-0.6c1.04,0,1.6,0.54,1.6,1.64V31.55z"/>
<path class="st5" d="M44.78,28.22c-0.41,0-0.46,0.41-0.46,1.07c0,0.65,0.05,1.06,0.46,1.06c0.41,0,0.46-0.41,0.46-1.06  C45.23,28.63,45.19,28.22,44.78,28.22z"/>
<polygon class="st2" points="22.78,20.42 18.51,30.24 18.51,35.47 26.69,35.47 26.69,29.46 "/>
<polygon class="st6" points="20.96,16.27 18.51,16.27 18.51,30.24 22.78,20.42 "/>
<polygon class="st7" points="20.96,16.27 26.69,16.27 26.69,29.46 "/>
<path class="st8" d="M44.87,16.27c-5.14,0.18-9.08,4.39-9.08,9.59c0,2.36,0.85,4.53,2.27,6.2L44.87,16.27z"/>
</svg>